#!OML:ASF G:\JayActor3\Patient Classification 1\Patient 1\Session 5\male.ASF
:FULLY-SPECIFIED
:DEGREES
658
root -5.44013 17.7431 -5.61526 11.2583 83.6342 -4.63886
lowerback 20.8504 -1.27306 -0.620458
upperback 7.53318 -1.36972 -1.47697
thorax -3.50038 -0.463786 -0.91558
lowerneck 6.71566 1.15185 2.96797
upperneck -20.372 2.35463 -0.149463
head -7.31188 1.08328 -0.760994
rclavicle -7.15625e-015 -1.66979e-014
rhumerus -31.0726 -1.35559 -90.8489
rradius 27.4954
rwrist 2.12014
rhand -21.8335 -9.48228
rfingers 7.12502
rthumb 4.56953 -39.413
lclavicle -7.15625e-015 -1.66979e-014
lhumerus -29.1147 5.67725 83.3107
lradius 26.9761
lwrist 21.1591
lhand -20.5551 13.6834
lfingers 7.12502
lthumb 5.80388 43.5839
rfemur -48.9146 6.66614 17.6827
rtibia 42.5393
rfoot -7.5027 -1.02824
rtoes -10.6344
lfemur -27.7685 13.2684 -24.979
ltibia 33.0239
lfoot -0.235844 -1.43574
ltoes -27.6142
659
root -5.56285 17.7621 -5.61048 9.42519 83.7359 -6.66745
lowerback 20.7651 -1.30558 -0.39259
upperback 7.51621 -1.36683 -1.40052
thorax -3.47932 -0.462618 -0.964987
lowerneck 6.70774 1.13755 2.99185
upperneck -20.2233 2.32401 -0.175127
head -7.26169 1.06826 -0.768962
rclavicle -1.86858e-014 4.37326e-015
rhumerus -31.0017 -1.24616 -90.8406
rradius 27.5672
rwrist 2.01041
rhand -21.8901 -9.4909
rfingers 7.12502
rthumb 4.51493 -39.4228
lclavicle -1.86858e-014 4.37326e-015
lhumerus -29.1418 5.69569 83.2521
lradius 26.9669
lwrist 21.2322
lhand -20.4168 13.6899
lfingers 7.12502
lthumb 5.93745 43.5867
rfemur -48.9831 6.92626 17.8368
rtibia 44.8323
rfoot -7.87631 -0.825743
rtoes -11.184
lfemur -28.468 13.1264 -24.7781
ltibia 33.0101
lfoot 0.181814 -1.47307
ltoes -27.3411
660
root -5.68489 17.7808 -5.60428 7.37956 83.8519 -8.87477
lowerback 20.6915 -1.34506 -0.149425
upperback 7.50471 -1.36943 -1.32033
thorax -3.45863 -0.463644 -1.01779
lowerneck 6.67581 1.12217 3.01523
upperneck -20.0482 2.2914 -0.194866
head -7.19884 1.05204 -0.774246
rclavicle 5.96354e-015 1.59028e-015
rhumerus -30.9388 -1.15849 -90.8189
rradius 27.6396
rwrist 1.95432
rhand -21.9496 -9.51039
rfingers 7.12502
rthumb 4.45746 -39.4435
lclavicle 5.96354e-015 1.59028e-015
lhumerus -29.1846 5.73509 83.1825
lradius 26.9749
lwrist 21.2996
lhand -20.3095 13.6878
lfingers 7.12502
lthumb 6.04105 43.5817
rfemur -48.9731 7.17888 17.9884
rtibia 47.1253
rfoot -8.08139 -0.539963
rtoes -11.6861
lfemur -29.1188 13.0173 -24.5417
ltibia 32.9814
lfoot 0.598213 -1.59961
ltoes -27.142
661
root -5.80643 17.7988 -5.59687 5.1133 83.9765 -11.2704
lowerback 20.6274 -1.39069 0.107613
upperback 7.50023 -1.37667 -1.23746
thorax -3.43544 -0.466389 -1.07457
lowerneck 6.61841 1.10619 3.04011
upperneck -19.8576 2.25785 -0.21106
head -7.12659 1.03525 -0.778177
rclavicle 1.31198e-014 3.65764e-014
rhumerus -30.8811 -1.08879 -90.7849
rradius 27.7046
rwrist 1.94757
rhand -22.0173 -9.51804
rfingers 7.12502
rthumb 4.39204 -39.4525
lclavicle 1.31198e-014 3.65764e-014
lhumerus -29.2378 5.79626 83.1027
lradius 26.9945
lwrist 21.3537
lhand -20.2429 13.668
lfingers 7.12502
lthumb 6.10535 43.5601
rfemur -48.8673 7.4211 18.1408
rtibia 49.3827
rfoot -8.15337 -0.182168
rtoes -12.1107
lfemur -29.7215 12.9342 -24.278
ltibia 32.9304
lfoot 1.02374 -1.78982
ltoes -27.007
662
root -5.92776 17.8155 -5.58843 2.65402 84.1103 -13.8278
lowerback 20.5766 -1.44268 0.377994
upperback 7.49927 -1.38922 -1.15475
thorax -3.41564 -0.471217 -1.1378
lowerneck 6.54803 1.08812 3.07079
upperneck -19.6664 2.22238 -0.226364
head -7.05204 1.01723 -0.782562
rclavicle -1.19271e-014 -6.36111e-015
rhumerus -30.8322 -1.04045 -90.7393
rradius 27.7568
rwrist 1.97302
rhand -22.0826 -9.51022
rfingers 7.12502
rthumb 4.32897 -39.446
lclavicle -1.19271e-014 -6.36111e-015
lhumerus -29.3014 5.87968 83.0109
lradius 27.0139
lwrist 21.3805
lhand -20.2154 13.6258
lfingers 7.12502
lthumb 6.13189 43.517
rfemur -48.6478 7.64251 18.2962
rtibia 51.571
rfoot -8.1297 0.230087
rtoes -12.4034
lfemur -30.2784 12.8628 -23.9975
ltibia 32.8537
lfoot 1.47078 -2.02727
ltoes -26.9452
663
root -6.04895 17.8316 -5.57932 0.058809 84.2481 -16.4941
lowerback 20.5392 -1.49987 0.655946
upperback 7.49862 -1.40698 -1.07505
thorax -3.40265 -0.478231 -1.20723
lowerneck 6.48054 1.06875 3.10346
upperneck -19.4963 2.18795 -0.23544
head -6.98507 0.999137 -0.785677
rclavicle -3.97569e-014 -2.38542e-014
rhumerus -30.794 -1.01132 -90.6826
rradius 27.7951
rwrist 2.00758
rhand -22.1346 -9.48741
rfingers 7.12502
rthumb 4.27883 -39.4242
lclavicle -3.97569e-014 -2.38542e-014
lhumerus -29.3758 5.97503 82.91
lradius 27.0297
lwrist 21.3838
lhand -20.224 13.5682
lfingers 7.12502
lthumb 6.12357 43.4597
rfemur -48.3185 7.84172 18.4476
rtibia 53.6634
rfoot -8.03157 0.634431
rtoes -12.7556
lfemur -30.7884 12.7834 -23.7119
ltibia 32.7413
lfoot 1.93766 -2.26855
ltoes -26.9196
